<!DOCTYPE svg PUBLIC "-//W3C//DTD SVG 1.1 Tiny//EN" "http://www.w3.org/Graphics/SVG/1.1/DTD/svg11-tiny.dtd">
<svg version="1.1" baseProfile="tiny" id="Layer_1" xmlns="http://www.w3.org/2000/svg" xmlns:xlink="http://www.w3.org/1999/xlink"
	 x="0px" y="0px" width="36px" height="36px" viewBox="0 0 36 36" xml:space="preserve">
<path fill="#1072BA" d="M35.977,18.033c0,4.963-1.756,9.198-5.268,12.71c-3.51,3.511-7.747,5.268-12.709,5.268
	S8.801,34.254,5.29,30.743c-3.511-3.512-5.267-7.747-5.267-12.71c0-4.963,1.756-9.198,5.267-12.71
	C8.801,1.812,13.037,0.056,18,0.056s9.2,1.756,12.709,5.267C34.221,8.835,35.977,13.07,35.977,18.033z M31.481,18.033
	c0-3.745-1.31-6.928-3.933-9.55C24.928,5.861,21.745,4.551,18,4.551c-3.745,0-6.929,1.31-9.549,3.932
	c-2.621,2.622-3.933,5.806-3.933,9.55c0,3.745,1.312,6.929,3.933,9.55c2.621,2.621,5.805,3.934,9.549,3.934
	c3.746,0,6.928-1.312,9.549-3.934C30.172,24.962,31.481,21.778,31.481,18.033z M26.672,16.102c0.211,0.211,0.316,0.479,0.316,0.808
	v2.248c0,0.326-0.105,0.596-0.316,0.807c-0.21,0.211-0.479,0.316-0.807,0.316h-8.989c-0.328,0-0.596-0.105-0.807-0.316
	c-0.211-0.211-0.316-0.48-0.316-0.807V7.921c0-0.327,0.105-0.598,0.316-0.807c0.21-0.21,0.479-0.315,0.807-0.315h2.247
	c0.328,0,0.597,0.105,0.809,0.315c0.21,0.209,0.314,0.48,0.314,0.807v7.864h5.619C26.192,15.786,26.462,15.891,26.672,16.102z"/>
</svg>
