<!DOCTYPE svg PUBLIC "-//W3C//DTD SVG 1.1 Tiny//EN" "http://www.w3.org/Graphics/SVG/1.1/DTD/svg11-tiny.dtd">
<svg version="1.1" baseProfile="tiny" id="Layer_1" xmlns="http://www.w3.org/2000/svg" xmlns:xlink="http://www.w3.org/1999/xlink"
	 x="0px" y="0px" width="40px" height="40px" viewBox="0 0 40 40" xml:space="preserve">
<path fill="#1072BA" d="M36.129-32.495L32.971-20c0,0.134-0.022,0.268-0.066,0.404c-0.135,0.269-0.336,0.47-0.606,0.604
	c-0.133,0.045-0.268,0.066-0.401,0.066H11.476l0.875,4.3h18.472c0.312,0,0.57,0.102,0.772,0.303
	c0.201,0.201,0.303,0.459,0.303,0.771c0,0.315-0.102,0.571-0.303,0.772c-0.202,0.201-0.46,0.304-0.772,0.304H11.476
	c-0.313,0-0.57-0.103-0.772-0.304c-0.201-0.201-0.303-0.457-0.303-0.772L6.305-33.971H2.879c-0.314,0-0.571-0.101-0.772-0.304
	c-0.201-0.2-0.302-0.458-0.302-0.771c0-0.314,0.101-0.571,0.302-0.773c0.202-0.203,0.458-0.303,0.772-0.303h4.299
	c0.312,0,0.571,0.1,0.771,0.303c0.203,0.202,0.303,0.459,0.303,0.773l0.203,1.075H35.12c0.313,0,0.572,0.099,0.773,0.302
	c0.202,0.202,0.302,0.46,0.302,0.773C36.195-32.762,36.173-32.628,36.129-32.495z M11.073-21.074h3.628v-10.749H8.924L11.073-21.074
	z M11.342-9.386c0.626-0.627,1.388-0.941,2.284-0.941c0.896,0,1.656,0.314,2.285,0.941c0.625,0.627,0.939,1.388,0.939,2.283
	s-0.314,1.656-0.939,2.283c-0.629,0.627-1.39,0.941-2.285,0.941c-0.896,0-1.657-0.314-2.284-0.941
	c-0.628-0.627-0.941-1.388-0.941-2.283S10.714-8.759,11.342-9.386z M12.854-6.33c0.201,0.201,0.458,0.303,0.772,0.303
	s0.571-0.102,0.772-0.303s0.302-0.457,0.302-0.772c0-0.312-0.101-0.571-0.302-0.772c-0.201-0.202-0.459-0.302-0.772-0.302
	s-0.571,0.1-0.772,0.302c-0.203,0.201-0.303,0.46-0.303,0.772C12.551-6.787,12.651-6.531,12.854-6.33z M21.149-31.822h-5.375v10.749
	h5.375V-31.822z M27.599-31.822h-5.375v10.749h5.375V-31.822z M26.388-9.386c0.627-0.627,1.388-0.941,2.285-0.941
	c0.894,0,1.656,0.314,2.284,0.941c0.626,0.627,0.94,1.388,0.94,2.283s-0.314,1.656-0.94,2.283c-0.628,0.627-1.39,0.941-2.284,0.941
	c-0.897,0-1.658-0.314-2.285-0.941s-0.939-1.388-0.939-2.283S25.761-8.759,26.388-9.386z M27.899-6.33
	c0.203,0.201,0.459,0.303,0.774,0.303c0.313,0,0.57-0.102,0.772-0.303c0.201-0.201,0.302-0.457,0.302-0.772
	c0-0.312-0.101-0.571-0.302-0.772c-0.202-0.202-0.459-0.302-0.772-0.302c-0.314,0-0.571,0.1-0.774,0.302
	c-0.201,0.201-0.301,0.46-0.301,0.772C27.599-6.787,27.698-6.531,27.899-6.33z M28.673-31.822v10.749h2.417l2.754-10.749H28.673z"/>
<path fill="#1072BA" d="M38.166,11.484L17.626,33.46c-0.241,0.287-0.551,0.408-0.934,0.36c-0.43,0.048-0.767-0.073-1.004-0.36
	L2.114,19.598c-0.574-0.573-0.574-1.123,0-1.65l3.303-3.305c0.24-0.238,0.515-0.358,0.826-0.358c0.312,0,0.587,0.12,0.825,0.358
	l9.553,9.553l16.66-17.595c0.576-0.575,1.126-0.575,1.653,0l3.231,3.231C38.741,10.359,38.741,10.91,38.166,11.484z"/>
<path fill="#1072BA" d="M-0.692,20.231c0,4.963-1.756,9.197-5.268,12.709c-3.51,3.51-7.748,5.268-12.71,5.268
	s-9.198-1.758-12.709-5.268c-3.511-3.512-5.267-7.746-5.267-12.709s1.756-9.198,5.267-12.711c3.511-3.511,7.747-5.266,12.709-5.266
	s9.2,1.755,12.71,5.266C-2.448,11.033-0.692,15.269-0.692,20.231z M-5.188,20.231c0-3.745-1.311-6.928-3.933-9.55
	c-2.621-2.622-5.804-3.932-9.55-3.932c-3.744,0-6.929,1.31-9.549,3.932c-2.621,2.622-3.933,5.805-3.933,9.55
	c0,3.744,1.312,6.928,3.933,9.549c2.621,2.623,5.805,3.934,9.549,3.934c3.746,0,6.929-1.311,9.55-3.934
	C-6.498,27.159-5.188,23.976-5.188,20.231z M-9.997,18.3c0.211,0.211,0.316,0.479,0.316,0.807v2.248
	c0,0.328-0.105,0.598-0.316,0.807c-0.21,0.211-0.479,0.318-0.807,0.318h-8.989c-0.328,0-0.597-0.107-0.807-0.318
	c-0.211-0.209-0.316-0.479-0.316-0.807V10.12c0-0.327,0.105-0.598,0.316-0.808c0.21-0.211,0.479-0.314,0.807-0.314h2.247
	c0.329,0,0.597,0.104,0.809,0.314c0.21,0.21,0.315,0.48,0.315,0.808v7.864h5.619C-10.477,17.984-10.207,18.09-9.997,18.3z"/>
</svg>
