<!DOCTYPE svg PUBLIC "-//W3C//DTD SVG 1.1 Tiny//EN" "http://www.w3.org/Graphics/SVG/1.1/DTD/svg11-tiny.dtd">
<svg version="1.1" baseProfile="tiny" id="Layer_1" xmlns="http://www.w3.org/2000/svg" xmlns:xlink="http://www.w3.org/1999/xlink"
	 x="0px" y="0px" width="40px" height="40px" viewBox="0 0 40 40" xml:space="preserve">
<path fill="#1072BA" d="M36.129,7.505L32.971,20c0,0.134-0.022,0.268-0.066,0.404c-0.135,0.269-0.336,0.47-0.606,0.604
	c-0.133,0.045-0.268,0.066-0.401,0.066H11.476l0.875,4.3h18.472c0.312,0,0.57,0.102,0.772,0.303
	c0.201,0.201,0.303,0.459,0.303,0.771c0,0.315-0.102,0.571-0.303,0.772c-0.202,0.201-0.46,0.304-0.772,0.304H11.476
	c-0.313,0-0.57-0.103-0.772-0.304c-0.201-0.201-0.303-0.457-0.303-0.772L6.305,6.029H2.879c-0.314,0-0.571-0.101-0.772-0.304
	c-0.201-0.2-0.302-0.458-0.302-0.771c0-0.314,0.101-0.571,0.302-0.773c0.202-0.203,0.458-0.303,0.772-0.303h4.299
	c0.312,0,0.571,0.1,0.771,0.303c0.203,0.202,0.303,0.459,0.303,0.773l0.203,1.075H35.12c0.313,0,0.572,0.099,0.773,0.302
	c0.202,0.202,0.302,0.46,0.302,0.773C36.195,7.238,36.173,7.372,36.129,7.505z M11.073,18.926h3.628V8.178H8.924L11.073,18.926z
	 M11.342,30.614c0.626-0.627,1.388-0.941,2.284-0.941c0.896,0,1.656,0.314,2.285,0.941c0.625,0.627,0.939,1.388,0.939,2.283
	s-0.314,1.656-0.939,2.283c-0.629,0.627-1.39,0.941-2.285,0.941c-0.896,0-1.657-0.314-2.284-0.941
	c-0.628-0.627-0.941-1.388-0.941-2.283S10.714,31.241,11.342,30.614z M12.854,33.67c0.201,0.201,0.458,0.303,0.772,0.303
	s0.571-0.102,0.772-0.303s0.302-0.457,0.302-0.772c0-0.312-0.101-0.571-0.302-0.772c-0.201-0.202-0.459-0.302-0.772-0.302
	s-0.571,0.1-0.772,0.302c-0.203,0.201-0.303,0.46-0.303,0.772C12.551,33.213,12.651,33.469,12.854,33.67z M21.149,8.178h-5.375
	v10.749h5.375V8.178z M27.599,8.178h-5.375v10.749h5.375V8.178z M26.388,30.614c0.627-0.627,1.388-0.941,2.285-0.941
	c0.894,0,1.656,0.314,2.284,0.941c0.626,0.627,0.94,1.388,0.94,2.283s-0.314,1.656-0.94,2.283c-0.628,0.627-1.39,0.941-2.284,0.941
	c-0.897,0-1.658-0.314-2.285-0.941s-0.939-1.388-0.939-2.283S25.761,31.241,26.388,30.614z M27.899,33.67
	c0.203,0.201,0.459,0.303,0.774,0.303c0.313,0,0.57-0.102,0.772-0.303c0.201-0.201,0.302-0.457,0.302-0.772
	c0-0.312-0.101-0.571-0.302-0.772c-0.202-0.202-0.459-0.302-0.772-0.302c-0.314,0-0.571,0.1-0.774,0.302
	c-0.201,0.201-0.301,0.46-0.301,0.772C27.599,33.213,27.698,33.469,27.899,33.67z M28.673,8.178v10.749h2.417l2.754-10.749H28.673z"
	/>
<path fill="#1072BA" d="M100.335,5.854L77.709,30.062c-0.265,0.316-0.607,0.45-1.029,0.397c-0.474,0.053-0.845-0.081-1.106-0.397
	l-14.953-15.27c-0.633-0.632-0.633-1.238,0-1.818l3.639-3.64c0.264-0.263,0.567-0.395,0.91-0.395s0.646,0.131,0.909,0.395
	l10.524,10.523L94.955,0.475c0.635-0.633,1.241-0.633,1.821,0l3.559,3.56C100.969,4.615,100.969,5.222,100.335,5.854z"/>
<path fill="#1072BA" d="M-0.692,20.231c0,4.963-1.756,9.197-5.268,12.709c-3.51,3.51-7.748,5.268-12.71,5.268
	s-9.198-1.758-12.709-5.268c-3.511-3.512-5.267-7.746-5.267-12.709s1.756-9.198,5.267-12.711c3.511-3.511,7.747-5.266,12.709-5.266
	s9.2,1.755,12.71,5.266C-2.448,11.033-0.692,15.269-0.692,20.231z M-5.188,20.231c0-3.745-1.311-6.928-3.933-9.55
	c-2.621-2.622-5.804-3.932-9.55-3.932c-3.744,0-6.929,1.31-9.549,3.932c-2.621,2.622-3.933,5.805-3.933,9.55
	c0,3.744,1.312,6.928,3.933,9.549c2.621,2.623,5.805,3.934,9.549,3.934c3.746,0,6.929-1.311,9.55-3.934
	C-6.498,27.159-5.188,23.976-5.188,20.231z M-9.997,18.3c0.211,0.211,0.316,0.479,0.316,0.807v2.248
	c0,0.328-0.105,0.598-0.316,0.807c-0.21,0.211-0.479,0.318-0.807,0.318h-8.989c-0.328,0-0.597-0.107-0.807-0.318
	c-0.211-0.209-0.316-0.479-0.316-0.807V10.12c0-0.327,0.105-0.598,0.316-0.808c0.21-0.211,0.479-0.314,0.807-0.314h2.247
	c0.329,0,0.597,0.104,0.809,0.314c0.21,0.21,0.315,0.48,0.315,0.808v7.864h5.619C-10.477,17.984-10.207,18.09-9.997,18.3z"/>
</svg>
